Coordinates
version=1
nRows=7
nColumns=40
inDegrees=yes

Units are S.I. units (second, meters, Newtons, ...)
Angles are in degrees.

endheader
time	pelvis_tilt	pelvis_list	pelvis_rotation	pelvis_tx	pelvis_ty	pelvis_tz	hip_flexion_r	hip_adduction_r	hip_rotation_r	knee_angle_r	knee_angle_r_beta	ankle_angle_r	subtalar_angle_r	mtp_angle_r	hip_flexion_l	hip_adduction_l	hip_rotation_l	knee_angle_l	knee_angle_l_beta	ankle_angle_l	subtalar_angle_l	mtp_angle_l	lumbar_extension	lumbar_bending	lumbar_rotation	arm_flex_r	arm_add_r	arm_rot_r	elbow_flex_r	pro_sup_r	wrist_flex_r	wrist_dev_r	arm_flex_l	arm_add_l	arm_rot_l	elbow_flex_l	pro_sup_l	wrist_flex_l	wrist_dev_l
     50.25250000	     -1.59923145	     -3.72219336	      1.08940147	      1.05955635	      0.91092866	      0.56470684	     15.78580891	      4.23562364	     -8.98918552	     32.10828957	     32.10828957	     18.78130971	    -10.94610495	     -2.11112596	     35.81414209	    -14.26393173	      7.05449259	     70.81004812	     70.81004812	      9.99827023	    -19.19410590	     13.17104958	    -12.01721318	      5.07562203	      1.79715528	     14.66173516	    -16.30771055	     -5.81038409	     37.18633918	     45.97396066	      0.00000000	      0.00000000	      1.88518818	     -7.75245121	     -0.79224349	     28.88131450	     46.43805738	      0.00000000	      0.00000000
     50.27300000	     -1.41320422	     -3.80932227	      1.66489634	      1.05923629	      0.91087313	      0.56506918	     15.27508367	      4.43909755	     -9.06343845	     32.01464032	     32.01464032	     19.00149806	    -11.61481004	     -1.71254232	     36.41212687	    -14.37779318	      7.08654905	     69.13938242	     69.13938242	     10.49794131	    -19.23045537	     14.21275508	    -11.98701069	      5.04863477	      1.08853900	     17.63339881	    -15.68316718	     -6.25840451	     38.97283261	     45.94717716	      0.00000000	      0.00000000	     -1.12059684	     -7.44243510	     -0.40353077	     26.27233059	     46.32353846	      0.00000000	      0.00000000
     50.29350000	     -1.37469058	     -3.81519647	      2.25536581	      1.05891562	      0.91139531	      0.56494144	     14.73869470	      4.47956780	     -9.32343335	     31.58717072	     31.58717072	     19.12881749	    -11.87124199	     -1.37885031	     36.76230160	    -14.35994483	      6.90277510	     66.56371724	     66.56371724	     10.81098020	    -19.27084487	     15.02992232	    -11.79577881	      4.95827803	      1.25711466	     19.97480521	    -15.66702759	     -6.78663068	     40.40069902	     45.93394911	      0.00000000	      0.00000000	     -3.72162778	     -7.03690244	     -0.08114437	     24.49503768	     46.21825763	      0.00000000	      0.00000000
     50.31400000	     -1.42744652	     -3.79131738	      2.89488913	      1.05852955	      0.91246851	      0.56439224	     14.12144363	      4.45684723	     -9.69020850	     30.82706165	     30.82706165	     19.14078343	    -11.93153839	     -1.10167787	     36.83927628	    -14.22742700	      6.59179773	     63.18042262	     63.18042262	     10.85774803	    -19.23896997	     15.48766050	    -11.51898282	      4.84858851	      1.44409754	     22.20086991	    -15.71629047	     -7.34711168	     42.02223100	     45.91336445	      0.00000000	      0.00000000	     -6.20309460	     -6.72395964	      0.20617782	     23.21773757	     46.11422744	      0.00000000	      0.00000000
     50.33450000	     -1.57336116	     -3.73814270	      3.59401481	      1.05803936	      0.91397811	      0.56332219	     13.44753675	      4.35715757	    -10.18613772	     29.76762815	     29.76762815	     19.02264030	    -11.81004318	     -0.87551408	     36.65472010	    -13.92191704	      6.23964683	     59.12183021	     59.12183021	     10.58398796	    -19.15493645	     15.54949726	    -11.19125410	      4.73619991	      1.50755043	     24.35126822	    -15.77182422	     -7.98983786	     43.95669972	     45.88327651	      0.00000000	      0.00000000	     -8.58418638	     -6.48750236	      0.51635855	     22.36320682	     45.99867659	      0.00000000	      0.00000000
     50.35500000	     -1.84223832	     -3.63866525	      4.32041323	      1.05745219	      0.91572783	      0.56184218	     12.82452349	      4.18200577	    -10.72825514	     28.55551368	     28.55551368	     18.81374461	    -11.62095445	     -0.66708931	     36.25593548	    -13.40993223	      5.91173946	     54.53295034	     54.53295034	     10.05418956	    -18.97660929	     15.64056101	    -10.68721115	      4.56116496	      1.78758921	     26.29458946	    -16.06616322	     -8.44699032	     45.60897209	     45.85422256	      0.00000000	      0.00000000	    -10.64948558	     -6.35534604	      0.69315829	     21.84544370	     45.91417487	      0.00000000	      0.00000000
     50.37550000	     -2.01661900	     -3.65364301	      5.11701059	      1.05687631	      0.91765071	      0.55986563	     11.93229657	      4.04875436	    -11.69036728	     27.02799565	     27.02799565	     18.44348749	    -10.84564393	     -1.08497286	     35.47055365	    -12.95740313	      5.61472330	     49.51573341	     49.51573341	      8.33878766	    -18.66079647	     12.70704674	    -10.45627280	      4.63895760	      1.41784445	     27.97885373	    -15.84066447	     -9.71008546	     49.75862147	     45.76235233	      0.00000000	      0.00000000	    -13.30365459	     -6.32630952	      1.51113455	     22.80121394	     45.64506299	      0.00000000	      0.00000000
